<svg xmlns="http://www.w3.org/2000/svg" version="1.1" xmlns:xlink="http://www.w3.org/1999/xlink" xmlns:svgjs="http://svgjs.com/svgjs" width="212" height="212" x="0" y="0" viewBox="0 0 512 512" style="enable-background:new 0 0 512 512" xml:space="preserve" class=""><g><path d="M507.606 395.512 452.64 340.54c-5.668 11.929-16.509 21.095-30.264 24.363l-7.488 1.778-1.779 7.494c-3.039 12.799-17.333 36.901-47.42 34.455l-7.681-.624-4.006 6.575c-6.744 11.067-18.064 18.631-30.649 20.874l72.159 72.151a14.998 14.998 0 0 0 24.837-5.863l20.347-61.048 61.048-20.347a14.998 14.998 0 0 0 5.862-24.836zM157.998 414.582l-4.006-6.575-7.681.624c-30.087 2.446-44.381-21.656-47.42-34.455l-1.779-7.494-7.488-1.778c-13.755-3.268-24.596-12.434-30.264-24.363L4.394 395.512a14.998 14.998 0 0 0 5.863 24.837l61.048 20.347 20.347 61.048a14.998 14.998 0 0 0 24.837 5.863l72.159-72.151c-12.586-2.244-23.906-9.807-30.65-20.874zM328.384 398.97l13.627-22.36 26.101 2.12c7.367.597 14.097-4.278 15.807-11.485l6.051-25.479 25.471-6.049a15.001 15.001 0 0 0 11.484-15.809l-2.12-26.094 22.359-13.626a15 15 0 0 0 6.039-18.582l-10.076-24.166 17.052-19.868a15.001 15.001 0 0 0 .002-19.538l-17.054-19.875 10.076-24.168a15 15 0 0 0-6.039-18.582l-22.359-13.626 2.12-26.094a15.002 15.002 0 0 0-11.484-15.809l-25.471-6.049-6.051-25.479c-1.711-7.207-8.44-12.082-15.807-11.485l-26.101 2.12-13.627-22.36c-3.854-6.326-11.751-8.887-18.584-6.038l-24.164 10.082-19.867-17.054a15.001 15.001 0 0 0-19.539 0l-19.866 17.052L202.2 10.587a15 15 0 0 0-18.584 6.038l-13.627 22.36-26.101-2.12c-7.382-.591-14.096 4.278-15.807 11.485l-6.051 25.479-25.471 6.051a15.001 15.001 0 0 0-11.484 15.809l2.12 26.094-22.359 13.626a15 15 0 0 0-6.039 18.582l10.076 24.168-17.054 19.875a15.001 15.001 0 0 0 .002 19.538l17.052 19.868-10.074 24.166a15 15 0 0 0 6.039 18.582l22.359 13.626-2.12 26.094a15.002 15.002 0 0 0 11.484 15.809l25.471 6.049 6.051 25.479c1.712 7.207 8.426 12.076 15.807 11.485l26.101-2.12 13.627 22.36a15 15 0 0 0 18.584 6.038l24.164-10.082 19.866 17.051a15.001 15.001 0 0 0 19.539 0l19.866-17.051 24.164 10.082c6.832 2.849 14.729.287 18.583-6.038zm-77.844-84.163c-5.856 5.857-15.355 5.859-21.213 0L140.96 226.44c-5.858-5.857-5.858-15.355 0-21.213l45.444-45.445c5.857-5.858 15.355-5.858 21.213 0l32.316 32.315 72.482-72.482c5.857-5.858 15.355-5.858 21.213 0l45.444 45.444c5.858 5.858 5.858 15.355 0 21.213z" fill="#ffffff" data-original="#000000" class=""></path><path d="M250.54 223.917c-5.857 5.858-15.355 5.858-21.213 0l-32.316-32.315-24.231 24.231 67.154 67.153 107.32-107.32-24.231-24.231z" fill="#ffffff" data-original="#000000" class=""></path></g></svg>